<?xml version="1.0" encoding="utf-8"?>
<!-- Generator: Adobe Illustrator 16.0.0, SVG Export Plug-In . SVG Version: 6.00 Build 0)  -->
<!DOCTYPE svg PUBLIC "-//W3C//DTD SVG 1.1//EN" "http://www.w3.org/Graphics/SVG/1.1/DTD/svg11.dtd">
<svg version="1.1"
	 id="svg2" xmlns:dc="http://purl.org/dc/elements/1.1/" xmlns:cc="http://creativecommons.org/ns#" xmlns:rdf="http://www.w3.org/1999/02/22-rdf-syntax-ns#" xmlns:svg="http://www.w3.org/2000/svg" xmlns:sodipodi="http://sodipodi.sourceforge.net/DTD/sodipodi-0.dtd" xmlns:inkscape="http://www.inkscape.org/namespaces/inkscape" sodipodi:docname="Strassenbahnnetz-Leipzig_20101010.svg" inkscape:version="0.48.2 r9819"
	 xmlns="http://www.w3.org/2000/svg" xmlns:xlink="http://www.w3.org/1999/xlink" x="0px" y="0px" width="2064.678px"
	 height="1472.279px" viewBox="0 0 2064.678 1472.279" enable-background="new 0 0 2064.678 1472.279" xml:space="preserve">
<sodipodi:namedview  inkscape:cy="1372.3533" inkscape:cx="938.2838" inkscape:zoom="1.3693053" showgrid="false" guidetolerance="10" gridtolerance="10" pagecolor="#ffffff" borderopacity="1" bordercolor="#AAA7A7" objecttolerance="10" id="namedview5803" inkscape:pageshadow="2" inkscape:pageopacity="0" inkscape:current-layer="layer2" inkscape:window-maximized="1" inkscape:window-width="1280" inkscape:window-height="738" inkscape:window-y="-8" inkscape:window-x="-8">
	<inkscape:grid  type="xygrid" id="grid4993"></inkscape:grid>
</sodipodi:namedview>
<defs>
	
	
		<inkscape:perspective  inkscape:vp_z="2064.6777 : 736.13971 : 1" inkscape:vp_y="0 : 1000 : 0" inkscape:vp_x="0 : 736.13971 : 1" sodipodi:type="inkscape:persp3d" id="perspective5807" inkscape:persp3d-origin="1032.3389 : 490.75981 : 1">
		</inkscape:perspective>
	
		<inkscape:perspective  inkscape:vp_z="1 : 0.5 : 1" inkscape:vp_y="0 : 1000 : 0" inkscape:vp_x="0 : 0.5 : 1" sodipodi:type="inkscape:persp3d" id="perspective5817" inkscape:persp3d-origin="0.5 : 0.33333333 : 1">
		</inkscape:perspective>
	
		<inkscape:perspective  inkscape:vp_z="1 : 0.5 : 1" inkscape:vp_y="0 : 1000 : 0" inkscape:vp_x="0 : 0.5 : 1" sodipodi:type="inkscape:persp3d" id="perspective5839" inkscape:persp3d-origin="0.5 : 0.33333333 : 1">
		</inkscape:perspective>
	
		<inkscape:perspective  inkscape:vp_z="1 : 0.5 : 1" inkscape:vp_y="0 : 1000 : 0" inkscape:vp_x="0 : 0.5 : 1" sodipodi:type="inkscape:persp3d" id="perspective10851" inkscape:persp3d-origin="0.5 : 0.33333333 : 1">
		</inkscape:perspective>
	
		<inkscape:perspective  inkscape:vp_z="1 : 0.5 : 1" inkscape:vp_y="0 : 1000 : 0" inkscape:vp_x="0 : 0.5 : 1" sodipodi:type="inkscape:persp3d" id="perspective10877" inkscape:persp3d-origin="0.5 : 0.33333333 : 1">
		</inkscape:perspective>
</defs>
<g id="layer3" transform="translate(508.66943,360.60033)">
	
		<path id="path3212" sodipodi:nodetypes="csssssssscsssssc" inkscape:connector-curvature="0" fill="none" stroke="#EE2222" stroke-width="6" d="
		M305.887-54.491c0,0,99.549,60.3,151.438,82.609c61.613,26.49,159.199,27.065,213.43,66.53
		c12.875,9.371,25.837,28.173,30.607,43.364c6.651,21.159-4.521,52.141-0.414,73.938c3.493,18.546,9.942,40.806,23.217,54.225
		c9.479,9.593,24.273,2.884,33.109,17.766c8.354,14.071-10.431,106.113-19.179,114.442c-3.384,3.226-15.604,3.15-24.188,5.62
		c-6.004,1.728-24.794-1.896-24.738,0.428c2.02,87.932,5.242,213.288,10.447,288.902c0.87,12.644,62.29,6.606,89.101,7.773
		c14.27,0.622,33.485,2.161,47.604,0c9.816-1.502,32.17-9.913,31.586,0c-1.981,33.702,0.173,95.563,1.661,129.945
		c0.646,14.938,1.167,24.688,1.167,24.688"/>
	<path id="path3376" fill="#EE2222" stroke="#EE2222" stroke-width="6.0273" d="M325.74-66.32c0,8.01-6.492,14.501-14.5,14.501
		c-8.009,0-14.5-6.491-14.5-14.501c0-8.009,6.491-14.5,14.5-14.5C319.248-80.82,325.74-74.329,325.74-66.32z"/>
	<text transform="matrix(1 0 0 1 301.0366 -59.7634)" fill="#FFFFFF" font-family="'Arial-BoldMT'" font-size="18">10</text>
	<path id="path3392" fill="#EE2222" stroke="#EE2222" stroke-width="6.0273" d="M872.331,854.378c0,8.009-6.487,14.5-14.5,14.5
		c-8.008,0-14.5-6.491-14.5-14.5c0-8.008,6.492-14.5,14.5-14.5C865.839,839.878,872.331,846.371,872.331,854.378z"/>
	<text transform="matrix(1 0 0 1 847.6284 860.9348)" fill="#FFFFFF" font-family="'Arial-BoldMT'" font-size="18">10</text>
	<text transform="matrix(1 0 0 1 1479.2378 145.3167)" fill="#FFFFFF" font-family="'Arial-BoldMT'" font-size="8">E</text>
</g>
<path id="rect2685" fill="#FFFFFF" stroke="#000000" stroke-width="2" stroke-miterlimit="1" d="M1190.643,812.896h10.854
	c1.104,0,2,0.896,2,2l0,0c0,1.104-0.896,2-2,2h-10.854c-1.104,0-2-0.896-2-2l0,0
	C1188.643,813.792,1189.536,812.896,1190.643,812.896z"/>
<path id="rect2695" fill="#FFFFFF" stroke="#000000" stroke-width="2" stroke-miterlimit="1" d="M1068.74,424.734l3.839-10.146
	c0.392-1.033,1.545-1.556,2.578-1.163l0,0c1.032,0.395,1.555,1.545,1.163,2.578l-3.84,10.146c-0.395,1.029-1.549,1.555-2.577,1.163
	l0,0C1068.869,426.923,1068.35,425.767,1068.74,424.734z"/>
<path id="rect2711" fill="#FFFFFF" stroke="#000000" stroke-width="2" stroke-miterlimit="1" d="M1192.074,1048.249h18.851
	c1.104,0,2,0.896,2,2l0,0c0,1.104-0.896,2-2,2h-18.851c-1.104,0-2-0.896-2-2l0,0
	C1190.074,1049.145,1190.971,1048.249,1192.074,1048.249z"/>
<path id="rect2789" fill="#FFFFFF" stroke="#000000" stroke-width="2" stroke-miterlimit="1" d="M1375.074,1059.749h10.851
	c1.104,0,2,0.896,2,2l0,0c0,1.104-0.896,2-2,2h-10.851c-1.104,0-2-0.896-2-2l0,0
	C1373.074,1060.645,1373.971,1059.749,1375.074,1059.749z"/>
<path id="rect2809" fill="#FFFFFF" stroke="#000000" stroke-width="2" stroke-miterlimit="1" d="M1251.448,1059.992h1.103
	c0.801,0,1.449,0.646,1.449,1.449v1.103c0,0.801-0.648,1.448-1.449,1.448h-1.103c-0.802,0-1.448-0.647-1.448-1.448v-1.103
	C1250,1060.641,1250.648,1059.992,1251.448,1059.992z"/>
<path id="rect2861" fill="#FFFFFF" stroke="#000000" stroke-width="2" stroke-miterlimit="1" d="M821.209,319.487l6.334-8.809
	c0.646-0.896,1.895-1.104,2.791-0.456l0,0c0.896,0.645,1.102,1.895,0.456,2.791l-6.334,8.809c-0.646,0.896-1.896,1.103-2.792,0.456
	l0,0C820.769,321.635,820.564,320.385,821.209,319.487z"/>
<path id="rect2869" fill="#FFFFFF" stroke="#000000" stroke-width="2" stroke-miterlimit="1" d="M1377.879,1200.074h10.85
	c1.104,0,2,0.896,2,2l0,0c0,1.104-0.896,2-2,2h-10.85c-1.104,0-2-0.896-2-2l0,0
	C1375.879,1200.97,1376.774,1200.074,1377.879,1200.074z"/>
<text transform="matrix(1 0 0 1 836.5859 313.9785)" font-family="'Arial-BoldMT'" font-size="16">Wahren</text>
<text transform="matrix(0.866 -0.5 0.5 0.866 1016.2432 468.5996)" font-family="'ArialMT'" font-size="12">Wiederitz-</text>
<text transform="matrix(0.866 -0.5 0.5 0.866 1022.2432 478.9922)" font-family="'ArialMT'" font-size="12">scher Str.</text>
<text transform="matrix(1 0 0 1 1102.626 818.9688)" font-family="'ArialMT'" font-size="12">Hohe Str, LVB</text>
<text transform="matrix(1 0 0 1 1121.4932 1053.7246)" font-family="'ArialMT'" font-size="12">Connewitz,</text>
<text transform="matrix(1 0 0 1 1121.4932 1065.7246)" font-family="'ArialMT'" font-size="12">Kreuz</text>
<text transform="matrix(1 0 0 1 1323.3135 1247.2002)" font-family="'Arial-BoldMT'" font-size="14">Wildpark</text>
<text transform="matrix(0.9659 -0.2588 0.2588 0.9659 1234.0566 1044.8291)" font-family="'ArialMT'" font-size="12">Wiedebach-</text>
<text transform="matrix(0.9659 -0.2588 0.2588 0.9659 1237.1621 1056.4209)" font-family="'ArialMT'" font-size="12">platz</text>
<text transform="matrix(1 0 0 1 1389.7842 1066.3623)" font-family="'ArialMT'" font-size="12">Triftweg-T1</text>
<g id="layer2" transform="translate(508.66943,360.60033)">
	<text transform="matrix(1 0 0 1 -210.2256 -269.4919)" font-family="'ArialMT'" font-size="40">Liniennetz der Straßenbahn Leipzig</text>
</g>
</svg>
