<?xml version="1.0" encoding="utf-8"?>
<!-- Generator: Adobe Illustrator 16.0.0, SVG Export Plug-In . SVG Version: 6.00 Build 0)  -->
<!DOCTYPE svg PUBLIC "-//W3C//DTD SVG 1.1//EN" "http://www.w3.org/Graphics/SVG/1.1/DTD/svg11.dtd">
<svg version="1.1"
	 id="svg2" xmlns:dc="http://purl.org/dc/elements/1.1/" xmlns:cc="http://creativecommons.org/ns#" xmlns:rdf="http://www.w3.org/1999/02/22-rdf-syntax-ns#" xmlns:svg="http://www.w3.org/2000/svg" xmlns:sodipodi="http://sodipodi.sourceforge.net/DTD/sodipodi-0.dtd" xmlns:inkscape="http://www.inkscape.org/namespaces/inkscape" sodipodi:docname="Strassenbahnnetz-Leipzig_20101010.svg" inkscape:version="0.48.2 r9819"
	 xmlns="http://www.w3.org/2000/svg" xmlns:xlink="http://www.w3.org/1999/xlink" x="0px" y="0px" width="2064.678px"
	 height="1472.279px" viewBox="0 0 2064.678 1472.279" enable-background="new 0 0 2064.678 1472.279" xml:space="preserve">
<sodipodi:namedview  inkscape:cy="1372.3533" inkscape:cx="938.2838" inkscape:zoom="1.3693053" showgrid="false" guidetolerance="10" gridtolerance="10" pagecolor="#ffffff" borderopacity="1" bordercolor="#666666" objecttolerance="10" id="namedview5803" inkscape:pageshadow="2" inkscape:pageopacity="0" inkscape:current-layer="layer2" inkscape:window-maximized="1" inkscape:window-width="1280" inkscape:window-height="738" inkscape:window-y="-8" inkscape:window-x="-8">
	<inkscape:grid  type="xygrid" id="grid4993"></inkscape:grid>
</sodipodi:namedview>
<defs>
	
	
		<inkscape:perspective  inkscape:vp_z="2064.6777 : 736.13971 : 1" inkscape:vp_y="0 : 1000 : 0" inkscape:vp_x="0 : 736.13971 : 1" sodipodi:type="inkscape:persp3d" id="perspective5807" inkscape:persp3d-origin="1032.3389 : 490.75981 : 1">
		</inkscape:perspective>
	
		<inkscape:perspective  inkscape:vp_z="1 : 0.5 : 1" inkscape:vp_y="0 : 1000 : 0" inkscape:vp_x="0 : 0.5 : 1" sodipodi:type="inkscape:persp3d" id="perspective5817" inkscape:persp3d-origin="0.5 : 0.33333333 : 1">
		</inkscape:perspective>
	
		<inkscape:perspective  inkscape:vp_z="1 : 0.5 : 1" inkscape:vp_y="0 : 1000 : 0" inkscape:vp_x="0 : 0.5 : 1" sodipodi:type="inkscape:persp3d" id="perspective5839" inkscape:persp3d-origin="0.5 : 0.33333333 : 1">
		</inkscape:perspective>
	
		<inkscape:perspective  inkscape:vp_z="1 : 0.5 : 1" inkscape:vp_y="0 : 1000 : 0" inkscape:vp_x="0 : 0.5 : 1" sodipodi:type="inkscape:persp3d" id="perspective10851" inkscape:persp3d-origin="0.5 : 0.33333333 : 1">
		</inkscape:perspective>
	
		<inkscape:perspective  inkscape:vp_z="1 : 0.5 : 1" inkscape:vp_y="0 : 1000 : 0" inkscape:vp_x="0 : 0.5 : 1" sodipodi:type="inkscape:persp3d" id="perspective10877" inkscape:persp3d-origin="0.5 : 0.33333333 : 1">
		</inkscape:perspective>
</defs>
<path fill="none" stroke="#FFCC00" stroke-width="6" d="M524.091,1055.745c1.748,6.895,6.748,12.895,11.748,16.895
	c44-16,88-26,133-41c12-4,24-5,36-7c10-1,19-1,29,1c7,2,11,8,16,13c9,8,20,1,29-2c2-1,4-3,6-4c16-14,4-34,1-51c-1-10,0-20,9-25
	c18-9,37-3,55,3c27,9,53,22,82,22c5,0,11-2,16-4c2-1,5-2,7-4c1-2,3-3,5-5c2-3,4-6,6-9c1-2,2-5,3-7c8-22,8-44,15-67c3-13,5-26,17-35
	c4-2,10-2,14-5c8-7,6-18,8-28c5-25,25-40,41-58c6-6,14-11,20-17c5-5,11-8,17-11c3-1,5-2,8-2c6,2,12,5,18,6c28,2,56-1,85,2
	c5,1,11,1,14,6c-2,15-10,31-1,45c2,3,5,5,8,8c42,37,86,65,127,102c13,11,29,12,45,10c1,0,4,1,5,2c18,24,36,45,54.479,67.085"/>
<path id="path3240" fill="#FFCC00" stroke="#FFCC00" stroke-width="2.9999" d="M1464,977.921c0,8.009-6.492,14.5-14.5,14.5
	s-14.5-6.491-14.5-14.5c0-8.008,6.492-14.5,14.5-14.5S1464,969.913,1464,977.921z"/>
<text transform="matrix(1 0 0 1 1444.3027 984.4766)" font-family="'Arial-BoldMT'" font-size="18">2</text>
<g id="layer4" transform="translate(508.66943,360.60033)">
	<path id="path3300_1_" fill="#AAA7A7" stroke="#AAA7A7" stroke-width="2.9999" d="M225.581,1091.9"/>
</g>
<path id="rect2879" fill="#FFFFFF" stroke="#000000" stroke-width="2" stroke-miterlimit="1" d="M1296.752,847.795l7.621-7.723
	c0.775-0.786,2.042-0.794,2.828-0.021l0,0c0.786,0.776,0.795,2.042,0.02,2.828l-7.621,7.723c-0.774,0.786-2.042,0.797-2.828,0.021
	l0,0C1295.984,849.848,1295.977,848.581,1296.752,847.795z"/>
<path id="rect3599" fill="#FFFFFF" stroke="#000000" stroke-width="2" stroke-miterlimit="1" d="M869.988,955.393l-1.06,10.8
	c-0.105,1.1-1.086,1.901-2.186,1.796l0,0c-1.101-0.108-1.903-1.087-1.796-2.188l1.059-10.798c0.107-1.1,1.086-1.903,2.188-1.796l0,0
	C869.293,953.316,870.097,954.294,869.988,955.393z"/>
<path id="rect3613" fill="#FFFFFF" stroke="#000000" stroke-width="2" stroke-miterlimit="1" d="M988.692,850.201l9.959,4.303
	c1.015,0.438,1.479,1.615,1.043,2.629l0,0c-0.438,1.017-1.615,1.481-2.629,1.043l-9.96-4.303c-1.016-0.438-1.48-1.614-1.045-2.629
	l0,0C986.501,850.231,987.678,849.764,988.692,850.201z"/>
<path id="rect3631" fill="#FFFFFF" stroke="#000000" stroke-width="2" stroke-miterlimit="1" d="M1052.802,750.356l11.329,11.354
	c0.78,0.782,0.779,2.049-0.003,2.829l0,0c-0.782,0.78-2.048,0.778-2.828-0.004l-11.33-11.354c-0.78-0.78-0.776-2.049,0.003-2.829
	l0,0C1050.755,749.573,1052.021,749.574,1052.802,750.356z"/>
<path id="rect3817" fill="#FFFFFF" stroke="#000000" stroke-width="2" stroke-miterlimit="1" d="M726.002,1015.039l-0.807,10.819
	c-0.082,1.102-1.042,1.928-2.146,1.846l0,0c-1.102-0.083-1.928-1.042-1.846-2.146l0.808-10.817c0.082-1.104,1.041-1.93,2.145-1.848
	l0,0C725.258,1012.979,726.084,1013.938,726.002,1015.039z"/>
<text transform="matrix(0.866 0.5 -0.5 0.866 867.5171 980.2227)" font-family="'ArialMT'" font-size="12">Adler</text>
<text transform="matrix(0.7071 0.7071 -0.7071 0.7071 720.0005 1036.8818)" font-family="'ArialMT'" font-size="12">Hermann-Meyer-Str.</text>
<text transform="matrix(0.866 -0.5 0.5 0.866 1247.2002 867.9697)" font-family="'ArialMT'" font-size="12">Johannisallee</text>
<text transform="matrix(0.5 0.866 -0.866 0.5 1061.8369 770.0547)" font-family="'ArialMT'" font-size="12">Marschnerstr.</text>
<text transform="matrix(0.866 0.5 -0.5 0.866 1000.5083 862.8896)" font-family="'ArialMT'" font-size="12">Holbeinstr.</text>
<text transform="matrix(1 0 0 1 1414.3936 1006.3701)" font-family="'Arial-BoldMT'" font-size="16">Naun-</text>
<text transform="matrix(1 0 0 1 1414.3936 1022.3701)" font-family="'Arial-BoldMT'" font-size="16">hofer</text>
<text transform="matrix(1 0 0 1 1414.3936 1038.3711)" font-family="'Arial-BoldMT'" font-size="16">Str.</text>
<g id="layer2" transform="translate(508.66943,360.60033)">
	<text transform="matrix(1 0 0 1 -210.2256 -269.4929)" font-family="'ArialMT'" font-size="40">Liniennetz der Straßenbahn Leipzig</text>
</g>
<path id="path3234" fill="#FFCC00" stroke="#FFCC00" stroke-width="2.9999" d="M533.024,1047.004
	c0.006,8.009-6.481,14.505-14.49,14.511c-8.008,0.007-14.504-6.479-14.51-14.487c0-0.01,0-0.017,0-0.021
	c-0.008-8.008,6.479-14.504,14.487-14.51c8.009-0.006,14.505,6.479,14.513,14.489
	C533.024,1046.99,533.024,1046.997,533.024,1047.004z"/>
<text transform="matrix(1 0 0 1 513.3271 1053.5596)" font-family="'Arial-BoldMT'" font-size="18">2</text>
<text transform="matrix(1 0 0 1 394.1914 1062.5459)" font-family="'Arial-BoldMT'" font-size="16">Grünau-Süd</text>
</svg>
