<?xml version="1.0" encoding="utf-8"?>
<!-- Generator: Adobe Illustrator 16.0.0, SVG Export Plug-In . SVG Version: 6.00 Build 0)  -->
<!DOCTYPE svg PUBLIC "-//W3C//DTD SVG 1.1//EN" "http://www.w3.org/Graphics/SVG/1.1/DTD/svg11.dtd">
<svg version="1.1"
	 id="svg2" xmlns:dc="http://purl.org/dc/elements/1.1/" xmlns:cc="http://creativecommons.org/ns#" xmlns:rdf="http://www.w3.org/1999/02/22-rdf-syntax-ns#" xmlns:svg="http://www.w3.org/2000/svg" xmlns:sodipodi="http://sodipodi.sourceforge.net/DTD/sodipodi-0.dtd" xmlns:inkscape="http://www.inkscape.org/namespaces/inkscape" sodipodi:docname="Strassenbahnnetz-Leipzig_20101010.svg" inkscape:version="0.48.2 r9819"
	 xmlns="http://www.w3.org/2000/svg" xmlns:xlink="http://www.w3.org/1999/xlink" x="0px" y="0px" width="2064.678px"
	 height="1472.279px" viewBox="0 0 2064.678 1472.279" enable-background="new 0 0 2064.678 1472.279" xml:space="preserve">
<sodipodi:namedview  inkscape:cy="1372.3533" inkscape:cx="938.2838" inkscape:zoom="1.3693053" showgrid="false" guidetolerance="10" gridtolerance="10" pagecolor="#ffffff" borderopacity="1" bordercolor="#AAA7A7" objecttolerance="10" id="namedview5803" inkscape:pageshadow="2" inkscape:pageopacity="0" inkscape:current-layer="layer2" inkscape:window-maximized="1" inkscape:window-width="1280" inkscape:window-height="738" inkscape:window-y="-8" inkscape:window-x="-8">
	<inkscape:grid  type="xygrid" id="grid4993"></inkscape:grid>
</sodipodi:namedview>
<defs>
	
	
		<inkscape:perspective  inkscape:vp_z="2064.6777 : 736.13971 : 1" inkscape:vp_y="0 : 1000 : 0" inkscape:vp_x="0 : 736.13971 : 1" sodipodi:type="inkscape:persp3d" id="perspective5807" inkscape:persp3d-origin="1032.3389 : 490.75981 : 1">
		</inkscape:perspective>
	
		<inkscape:perspective  inkscape:vp_z="1 : 0.5 : 1" inkscape:vp_y="0 : 1000 : 0" inkscape:vp_x="0 : 0.5 : 1" sodipodi:type="inkscape:persp3d" id="perspective5817" inkscape:persp3d-origin="0.5 : 0.33333333 : 1">
		</inkscape:perspective>
	
		<inkscape:perspective  inkscape:vp_z="1 : 0.5 : 1" inkscape:vp_y="0 : 1000 : 0" inkscape:vp_x="0 : 0.5 : 1" sodipodi:type="inkscape:persp3d" id="perspective5839" inkscape:persp3d-origin="0.5 : 0.33333333 : 1">
		</inkscape:perspective>
	
		<inkscape:perspective  inkscape:vp_z="1 : 0.5 : 1" inkscape:vp_y="0 : 1000 : 0" inkscape:vp_x="0 : 0.5 : 1" sodipodi:type="inkscape:persp3d" id="perspective10851" inkscape:persp3d-origin="0.5 : 0.33333333 : 1">
		</inkscape:perspective>
	
		<inkscape:perspective  inkscape:vp_z="1 : 0.5 : 1" inkscape:vp_y="0 : 1000 : 0" inkscape:vp_x="0 : 0.5 : 1" sodipodi:type="inkscape:persp3d" id="perspective10877" inkscape:persp3d-origin="0.5 : 0.33333333 : 1">
		</inkscape:perspective>
</defs>
<g id="layer3" transform="translate(508.66943,360.60033)">
	
		<path id="path3214" sodipodi:nodetypes="cssssssssssssssc" inkscape:connector-curvature="0" fill="none" stroke="#EE2222" stroke-width="6" d="
		M807.106-339.748c0,0-101.713,37.72-145.664,55.154c-18.438,7.313,75.283,140.494,80.608,169.705
		c5.224,28.64,7.433,93.771,14.278,147.537c4.396,34.544-50.845,68.236-47.271,102.876c3.829,37.142-4.807,54.746-0.621,76.428
		c3.264,16.907,8.455,36.848,20.592,49.065c10.064,10.136,20.158,2.614,32.072,15.145c14.201,14.934-7.854,116.996-17.431,127.501
		c-7.161,7.854-21.354,0.054-24.821,8.862c-1.633,4.146,0.428,8.51,4.461,12.104c45.729,40.786,81.029,61.061,129.049,105.357
		c6.923,6.39-24.26,9.041-25.456,18.387c-1.605,12.555,24.146,20.167,26.87,32.523c7.166,32.484,22.007,70.938,21.059,102.238
		c-1.454,47.87,2.983,170.007,2.983,170.007"/>
	<path id="path3370_1_" fill="#AAA7A7" stroke="#AAA7A7" stroke-width="6.0273" d="M-507.169-270.85"/>
	<path id="path3386_1_" fill="#AAA7A7" stroke="#AAA7A7" stroke-width="6.0273" d="M884.534,1110.18"/>
	<path id="path3398" fill="#EE2222" stroke="#EE2222" stroke-width="6.0273" d="M905.331,854.378c0,8.009-6.489,14.5-14.5,14.5
		c-8.008,0-14.5-6.491-14.5-14.5c0-8.008,6.492-14.5,14.5-14.5C898.839,839.878,905.331,846.371,905.331,854.378z"/>
	<text transform="matrix(1 0 0 1 880.6284 860.9348)" fill="#FFFFFF" font-family="'Arial-BoldMT'" font-size="18">16</text>
	<path id="path3404" fill="#EE2222" stroke="#EE2222" stroke-width="6.0273" d="M832.792-344.6c0,8.008-6.49,14.5-14.5,14.5
		c-8.009,0-14.5-6.492-14.5-14.5c0-8.01,6.491-14.5,14.5-14.5C826.299-359.1,832.792-352.609,832.792-344.6z"/>
	<text transform="matrix(1 0 0 1 808.0874 -338.0447)" fill="#FFFFFF" font-family="'Arial-BoldMT'" font-size="18">16</text>
</g>
<path id="rect2789" fill="#FFFFFF" stroke="#000000" stroke-width="2" stroke-miterlimit="1" d="M1375.074,1059.749h10.851
	c1.104,0,2,0.896,2,2l0,0c0,1.104-0.896,2-2,2h-10.851c-1.104,0-2-0.896-2-2l0,0
	C1373.074,1060.645,1373.971,1059.749,1375.074,1059.749z"/>
<path id="rect2833" fill="#FFFFFF" stroke="#000000" stroke-width="2.1991" stroke-miterlimit="1" d="M1211.564,772.961h19.113
	c1.053,0,1.899,0.852,1.899,1.899l0,0c0,1.05-0.854,1.897-1.899,1.897h-19.113c-1.052,0-1.9-0.852-1.9-1.897l0,0
	C1209.663,773.811,1210.516,772.961,1211.564,772.961z"/>
<path id="rect2855" fill="#FFFFFF" stroke="#000000" stroke-width="2" stroke-miterlimit="1" d="M1310.198,20.75h1.103
	c0.801,0,1.449,0.648,1.449,1.449v1.103c0,0.8-0.648,1.448-1.449,1.448h-1.103c-0.802,0-1.448-0.648-1.448-1.448v-1.103
	C1308.75,21.399,1309.398,20.75,1310.198,20.75z"/>
<path id="rect2869" fill="#FFFFFF" stroke="#000000" stroke-width="2" stroke-miterlimit="1" d="M1377.879,1200.074h10.85
	c1.104,0,2,0.896,2,2l0,0c0,1.104-0.896,2-2,2h-10.85c-1.104,0-2-0.896-2-2l0,0
	C1375.879,1200.97,1376.774,1200.074,1377.879,1200.074z"/>
<path id="rect3299" fill="#FFFFFF" stroke="#000000" stroke-width="2" stroke-miterlimit="1" d="M1231.768,455.542h1.104
	c0.801,0,1.449,0.649,1.449,1.45v1.102c0,0.801-0.649,1.449-1.449,1.449h-1.104c-0.801,0-1.446-0.648-1.446-1.449v-1.102
	C1230.318,456.192,1230.967,455.542,1231.768,455.542z"/>
<path id="rect3347_1_" fill="#FFFFFF" stroke="#000000" stroke-width="2" stroke-miterlimit="1" d="M1175.57,71.886h1.103
	c0.801,0,1.448,0.647,1.448,1.448v1.102c0,0.801-0.647,1.45-1.448,1.45h-1.103c-0.803,0-1.449-0.649-1.449-1.45"/>
<text transform="matrix(1 0 0 1 1329.1514 47.4844)" font-family="'Arial-BoldMT'" font-size="16">Messe-</text>
<text transform="matrix(1 0 0 1 1329.1514 63.4844)" font-family="'Arial-BoldMT'" font-size="16">gelände</text>
<text transform="matrix(0.866 0.5 -0.5 0.866 1098.6787 28.9189)" font-family="'ArialMT'" font-size="12">Wiederitzsch-</text>
<text transform="matrix(0.866 0.5 -0.5 0.866 1092.6787 39.3115)" font-family="'ArialMT'" font-size="12">Mitte</text>
<text transform="matrix(0.5 -0.866 0.866 0.5 1234.5898 486.1909)" font-family="'ArialMT'" font-size="12">Wilhelmi-</text>
<text transform="matrix(0.5 -0.866 0.866 0.5 1244.9824 492.1909)" font-family="'ArialMT'" font-size="12">nenstr.</text>
<text transform="matrix(0.866 -0.5 0.5 0.866 1206.7197 803.5928)" font-family="'ArialMT'" font-size="12">Roßplatz</text>
<text transform="matrix(1 0 0 1 1374.3135 1247.2002)" font-family="'Arial-BoldMT'" font-size="16">Lößnig</text>
<text transform="matrix(1 0 0 1 1321.7568 1083.3623)" font-family="'ArialMT'" font-size="12">Triftweg-T2</text>
<text transform="matrix(0.866 -0.5 0.5 0.866 1299.2803 895.1201)" font-family="'ArialMT'" font-size="12">Deutsche</text>
<text transform="matrix(0.866 -0.5 0.5 0.866 1305.2803 905.5127)" font-family="'ArialMT'" font-size="12">National-</text>
<text transform="matrix(0.866 -0.5 0.5 0.866 1311.2803 915.9053)" font-family="'ArialMT'" font-size="12">bibliothek</text>
<g id="layer2" transform="translate(508.66943,360.60033)">
	<text transform="matrix(1 0 0 1 -210.2256 -269.4919)" font-family="'ArialMT'" font-size="40">Liniennetz der Straßenbahn Leipzig</text>
</g>
<path id="rect2879-6" fill="#FFFFFF" stroke="#000000" stroke-width="2" stroke-miterlimit="1" d="M1352.825,895.662l10.775,1.229
	c1.101,0.126,1.889,1.117,1.763,2.218l0,0c-0.125,1.097-1.115,1.885-2.215,1.76l-10.778-1.232c-1.099-0.125-1.886-1.117-1.761-2.214
	l0,0C1350.737,896.324,1351.729,895.536,1352.825,895.662z"/>
</svg>
