<?xml version="1.0" encoding="utf-8"?>
<!-- Generator: Adobe Illustrator 16.0.0, SVG Export Plug-In . SVG Version: 6.00 Build 0)  -->
<!DOCTYPE svg PUBLIC "-//W3C//DTD SVG 1.1//EN" "http://www.w3.org/Graphics/SVG/1.1/DTD/svg11.dtd">
<svg version="1.1"
	 id="svg2" xmlns:dc="http://purl.org/dc/elements/1.1/" xmlns:cc="http://creativecommons.org/ns#" xmlns:rdf="http://www.w3.org/1999/02/22-rdf-syntax-ns#" xmlns:svg="http://www.w3.org/2000/svg" xmlns:sodipodi="http://sodipodi.sourceforge.net/DTD/sodipodi-0.dtd" xmlns:inkscape="http://www.inkscape.org/namespaces/inkscape" sodipodi:docname="Strassenbahnnetz-Leipzig_20101010.svg" inkscape:version="0.48.2 r9819"
	 xmlns="http://www.w3.org/2000/svg" xmlns:xlink="http://www.w3.org/1999/xlink" x="0px" y="0px" width="2064.678px"
	 height="1472.279px" viewBox="0 0 2064.678 1472.279" enable-background="new 0 0 2064.678 1472.279" xml:space="preserve">
<sodipodi:namedview  inkscape:cy="1372.3533" inkscape:cx="938.2838" inkscape:zoom="1.3693053" showgrid="false" guidetolerance="10" gridtolerance="10" pagecolor="#ffffff" borderopacity="1" bordercolor="#666666" objecttolerance="10" id="namedview5803" inkscape:pageshadow="2" inkscape:pageopacity="0" inkscape:current-layer="layer2" inkscape:window-maximized="1" inkscape:window-width="1280" inkscape:window-height="738" inkscape:window-y="-8" inkscape:window-x="-8">
	<inkscape:grid  type="xygrid" id="grid4993"></inkscape:grid>
</sodipodi:namedview>
<defs>
	
	
		<inkscape:perspective  inkscape:vp_z="2064.6777 : 736.13971 : 1" inkscape:vp_y="0 : 1000 : 0" inkscape:vp_x="0 : 736.13971 : 1" sodipodi:type="inkscape:persp3d" id="perspective5807" inkscape:persp3d-origin="1032.3389 : 490.75981 : 1">
		</inkscape:perspective>
	
		<inkscape:perspective  inkscape:vp_z="1 : 0.5 : 1" inkscape:vp_y="0 : 1000 : 0" inkscape:vp_x="0 : 0.5 : 1" sodipodi:type="inkscape:persp3d" id="perspective5817" inkscape:persp3d-origin="0.5 : 0.33333333 : 1">
		</inkscape:perspective>
	
		<inkscape:perspective  inkscape:vp_z="1 : 0.5 : 1" inkscape:vp_y="0 : 1000 : 0" inkscape:vp_x="0 : 0.5 : 1" sodipodi:type="inkscape:persp3d" id="perspective5839" inkscape:persp3d-origin="0.5 : 0.33333333 : 1">
		</inkscape:perspective>
	
		<inkscape:perspective  inkscape:vp_z="1 : 0.5 : 1" inkscape:vp_y="0 : 1000 : 0" inkscape:vp_x="0 : 0.5 : 1" sodipodi:type="inkscape:persp3d" id="perspective10851" inkscape:persp3d-origin="0.5 : 0.33333333 : 1">
		</inkscape:perspective>
	
		<inkscape:perspective  inkscape:vp_z="1 : 0.5 : 1" inkscape:vp_y="0 : 1000 : 0" inkscape:vp_x="0 : 0.5 : 1" sodipodi:type="inkscape:persp3d" id="perspective10877" inkscape:persp3d-origin="0.5 : 0.33333333 : 1">
		</inkscape:perspective>
</defs>
<g id="layer4" transform="translate(508.66943,360.60033)">
	<path id="path3171" fill="none" stroke="#66BB44" stroke-width="6" d="M239.831,1097.15c0,0,6.453-60.828,10-87.5
		c2.207-16.598,43.618-43.799,48.5-68.5c7.12-36.025,12.09-91.818,18.5-118c3.299-13.469,46.786,9.857,46,4.5
		c-4.26-29.025-18.887-94.102-22.5-135c-1.188-13.447-3.436-31.82-0.5-45c9.157-41.125,44.989-87.527,61-126.5
		c8.438-20.533,19.138-48.34,24-70c5.025-22.386-0.455-49.686,12.035-68.93c8.712-13.422,28.281-26.663,42.465-34.07
		c109.728-57.308,77.521-24.616,103.09-33.607s26.887-15.115,59.41-24.893c19.688-5.918,48.113-4.649,68.5-2
		c42.438,5.519,48.31,21.493,71,17.688c19.288-3.236,30.781-24.573,49-31.688c40.533-15.822,134.922,4.672,145-3.5
		c64.373-52.195,142.319-131.065,206.5-183.5c37.754-30.843,89.93-69.736,130-97.5c59.104-40.95,146.579-83.189,202-129
		c5.89-4.867,17.5-18.5,17.5-18.5"/>
	<path id="path3173_1_" fill="none" stroke="#66BB44" stroke-width="6" d="M1313.831-10.851"/>
	<path id="path3300" fill="#66BB44" stroke="#66BB44" stroke-width="2.9999" d="M254.581,1091.9c0,8.01-6.491,14.5-14.5,14.5
		c-8.008,0-14.5-6.49-14.5-14.5c-0.006-8.009,6.48-14.505,14.489-14.511s14.505,6.481,14.511,14.489
		C254.581,1091.885,254.581,1091.892,254.581,1091.9L254.581,1091.9z"/>
	<text transform="matrix(1 0 0 1 234.8833 1098.4553)" fill="#FFFFFF" font-family="'Arial-BoldMT'" font-size="18">3</text>
	<path id="path3316" fill="#66BB44" stroke="#66BB44" stroke-width="6.0273" d="M1550.788-163.906c0,8.008-6.49,14.5-14.5,14.5
		c-8.008,0-14.5-6.492-14.5-14.5c0-8.009,6.492-14.5,14.5-14.5S1550.788-171.915,1550.788-163.906z"/>
	<text transform="matrix(1 0 0 1 1531.0913 -157.3513)" fill="#FFFFFF" font-family="'Arial-BoldMT'" font-size="18">3</text>
</g>
<path id="rect2865" fill="#FFFFFF" stroke="#000000" stroke-width="2" stroke-miterlimit="1" d="M2032.948,207.354h1.103
	c0.801,0,1.449,0.648,1.449,1.449v1.104c0,0.8-0.648,1.449-1.449,1.449h-1.103c-0.802,0-1.448-0.649-1.448-1.449v-1.104
	C2031.5,208.002,2032.148,207.354,2032.948,207.354z"/>
<path id="rect3525" fill="#FFFFFF" stroke="#000000" stroke-width="2" stroke-miterlimit="1" d="M934.406,800.482h1.103
	c0.802,0,1.448,0.647,1.448,1.447v1.104c0,0.801-0.646,1.449-1.448,1.449h-1.103c-0.801,0-1.448-0.648-1.448-1.449v-1.104
	C932.956,801.131,933.605,800.482,934.406,800.482z"/>
<path id="rect3880" fill="#FFFFFF" stroke="#000000" stroke-width="2" stroke-miterlimit="1" d="M749.448,1436.75h1.103
	c0.801,0,1.448,0.648,1.448,1.449v1.101c0,0.801-0.647,1.45-1.448,1.45h-1.103c-0.802,0-1.448-0.649-1.448-1.45v-1.101
	C748,1437.399,748.648,1436.75,749.448,1436.75z"/>
<path id="rect3886" fill="#FFFFFF" stroke="#000000" stroke-width="2" stroke-miterlimit="1" d="M866.534,1186.104h1.103
	c0.801,0,1.449,0.648,1.449,1.449v1.103c0,0.801-0.648,1.448-1.449,1.448h-1.103c-0.801,0-1.448-0.647-1.448-1.448v-1.103
	C865.086,1186.752,865.734,1186.104,866.534,1186.104z"/>
<path id="rect3388" fill="#FFFFFF" stroke="#000000" stroke-width="2" stroke-miterlimit="1" d="M1872.778,314.07h1.102
	c0.801,0,1.449,0.648,1.449,1.449v1.102c0,0.8-0.648,1.449-1.449,1.449h-1.102c-0.802,0-1.449-0.649-1.449-1.449v-1.102
	C1871.328,314.718,1871.979,314.07,1872.778,314.07z"/>
<path id="rect3434" fill="#FFFFFF" stroke="#000000" stroke-width="2" stroke-miterlimit="1" d="M1695.948,440.749h1.103
	c0.801,0,1.449,0.649,1.449,1.45v1.101c0,0.801-0.648,1.449-1.449,1.449h-1.103c-0.802,0-1.448-0.648-1.448-1.449v-1.101
	C1694.5,441.399,1695.148,440.749,1695.948,440.749z"/>
<path id="rect3125" fill="#FFFFFF" stroke="#000000" stroke-width="2" stroke-miterlimit="1" d="M1307.299,668.426l-10.764-11.894
	c-0.74-0.819-0.678-2.084,0.143-2.825l0,0c0.817-0.74,2.083-0.678,2.824,0.142l10.764,11.896c0.74,0.819,0.678,2.084-0.143,2.825
	l0,0C1309.305,669.309,1308.039,669.245,1307.299,668.426z"/>
<text transform="matrix(1 0 0 1 765.6348 1450.5928)" font-family="'Arial-BoldMT'" font-size="16">Knaut-</text>
<text transform="matrix(1 0 0 1 765.6348 1466.5928)" font-family="'Arial-BoldMT'" font-size="16">kleeberg</text>
<text transform="matrix(0.9659 0.2588 -0.2588 0.9659 876.9268 1195.6465)" font-family="'ArialMT'" font-size="12">Huttenstr.</text>
<text transform="matrix(0.5 -0.866 0.866 0.5 1288.8652 645.314)" font-family="'ArialMT'" font-size="12">Hofmeis-</text>
<text transform="matrix(0.5 -0.866 0.866 0.5 1299.2578 651.314)" font-family="'ArialMT'" font-size="12">terstr.</text>
<text transform="matrix(0.866 -0.5 0.5 0.866 943.8887 795.8799)" font-family="'ArialMT'" font-size="12">Felsenkeller</text>
<text transform="matrix(0.7071 0.7071 -0.7071 0.7071 1644.6143 395.5713)" font-family="'ArialMT'" font-size="12">Arcus Park</text>
<text transform="matrix(1 0 0 1 1988.0088 175.835)" font-family="'Arial-BoldMT'" font-size="16">Taucha</text>
<text transform="matrix(0.7071 0.7071 -0.7071 0.7071 1801.958 248.6289)" font-family="'ArialMT'" font-size="12">O.-Schmidt-Str.</text>
<g id="layer2" transform="translate(508.66943,360.60033)">
	<text transform="matrix(1 0 0 1 -210.2256 -269.4929)" font-family="'ArialMT'" font-size="40">Liniennetz der Straßenbahn Leipzig</text>
</g>
</svg>
