<?xml version="1.0" encoding="utf-8"?>
<!-- Generator: Adobe Illustrator 16.0.0, SVG Export Plug-In . SVG Version: 6.00 Build 0)  -->
<!DOCTYPE svg PUBLIC "-//W3C//DTD SVG 1.1//EN" "http://www.w3.org/Graphics/SVG/1.1/DTD/svg11.dtd">
<svg version="1.1"
	 id="svg2" xmlns:dc="http://purl.org/dc/elements/1.1/" xmlns:cc="http://creativecommons.org/ns#" xmlns:rdf="http://www.w3.org/1999/02/22-rdf-syntax-ns#" xmlns:svg="http://www.w3.org/2000/svg" xmlns:sodipodi="http://sodipodi.sourceforge.net/DTD/sodipodi-0.dtd" xmlns:inkscape="http://www.inkscape.org/namespaces/inkscape" sodipodi:docname="Strassenbahnnetz-Leipzig_20101010.svg" inkscape:version="0.48.2 r9819"
	 xmlns="http://www.w3.org/2000/svg" xmlns:xlink="http://www.w3.org/1999/xlink" x="0px" y="0px" width="2064.678px"
	 height="1472.279px" viewBox="0 0 2064.678 1472.279" enable-background="new 0 0 2064.678 1472.279" xml:space="preserve">
<sodipodi:namedview  inkscape:cy="1372.3533" inkscape:cx="938.2838" inkscape:zoom="1.3693053" showgrid="false" guidetolerance="10" gridtolerance="10" pagecolor="#ffffff" borderopacity="1" bordercolor="#666666" objecttolerance="10" id="namedview5803" inkscape:pageshadow="2" inkscape:pageopacity="0" inkscape:current-layer="layer2" inkscape:window-maximized="1" inkscape:window-width="1280" inkscape:window-height="738" inkscape:window-y="-8" inkscape:window-x="-8">
	<inkscape:grid  type="xygrid" id="grid4993"></inkscape:grid>
</sodipodi:namedview>
<defs>
	
	
		<inkscape:perspective  inkscape:vp_z="2064.6777 : 736.13971 : 1" inkscape:vp_y="0 : 1000 : 0" inkscape:vp_x="0 : 736.13971 : 1" sodipodi:type="inkscape:persp3d" id="perspective5807" inkscape:persp3d-origin="1032.3389 : 490.75981 : 1">
		</inkscape:perspective>
	
		<inkscape:perspective  inkscape:vp_z="1 : 0.5 : 1" inkscape:vp_y="0 : 1000 : 0" inkscape:vp_x="0 : 0.5 : 1" sodipodi:type="inkscape:persp3d" id="perspective5817" inkscape:persp3d-origin="0.5 : 0.33333333 : 1">
		</inkscape:perspective>
	
		<inkscape:perspective  inkscape:vp_z="1 : 0.5 : 1" inkscape:vp_y="0 : 1000 : 0" inkscape:vp_x="0 : 0.5 : 1" sodipodi:type="inkscape:persp3d" id="perspective5839" inkscape:persp3d-origin="0.5 : 0.33333333 : 1">
		</inkscape:perspective>
	
		<inkscape:perspective  inkscape:vp_z="1 : 0.5 : 1" inkscape:vp_y="0 : 1000 : 0" inkscape:vp_x="0 : 0.5 : 1" sodipodi:type="inkscape:persp3d" id="perspective10851" inkscape:persp3d-origin="0.5 : 0.33333333 : 1">
		</inkscape:perspective>
	
		<inkscape:perspective  inkscape:vp_z="1 : 0.5 : 1" inkscape:vp_y="0 : 1000 : 0" inkscape:vp_x="0 : 0.5 : 1" sodipodi:type="inkscape:persp3d" id="perspective10877" inkscape:persp3d-origin="0.5 : 0.33333333 : 1">
		</inkscape:perspective>
</defs>
<g id="layer1" transform="translate(508.66943,360.60033)">
	
		<path id="path3167" sodipodi:nodetypes="cssssssssssc" inkscape:connector-curvature="0" fill="none" stroke="#225599" stroke-width="6" d="
		M693.26-76.704c0,0-10.003,92.02-14.85,133.643c-1.701,14.608-49.291,48.545-51.619,68.59c-1.578,13.592,17.327,25.766,22.627,39.6
		c3.33,8.688,18.811,13.639,21.215,22.627c4.562,17.05-11.665,39.716-13.437,57.274c-2.166,21.486-12.484,71.487,9.024,69.571
		c16.389-1.459,24.882-0.725,30.534-0.03c5.473,0.673,26.292,2.196,25.85,4.285c-2.054,9.709-7.211,28.33-2.041,39.104
		c9.884,20.594,27.054,20.412,46.703,25.119c2.844,0.681,8.53,4.71,8.53,4.71"/>
	<path id="path3424" fill="#225599" stroke="#225599" stroke-width="6.0273" d="M709.081-84.1c0,8.008-6.491,14.5-14.5,14.5
		c-8.008,0-14.5-6.492-14.5-14.5c0-8.009,6.492-14.5,14.5-14.5C702.589-98.6,709.081-92.109,709.081-84.1z"/>
	<text transform="matrix(1 0 0 1 684.3784 -77.5457)" fill="#FFFFFF" font-family="'Arial-BoldMT'" font-size="18">12</text>
	<path id="path3466" fill="#225599" stroke="#225599" stroke-width="6.0273" d="M789.341,399.357c0,8.008-6.492,14.5-14.5,14.5
		c-8.009,0-14.501-6.492-14.501-14.5c0-8.009,6.492-14.501,14.501-14.501C782.848,384.856,789.341,391.348,789.341,399.357z"/>
	<text transform="matrix(1 0 0 1 764.6382 405.9114)" fill="#FFFFFF" font-family="'Arial-BoldMT'" font-size="18">12</text>
</g>
<path id="rect3079_1_" fill="#FFFFFF" stroke="#000000" stroke-width="2" stroke-miterlimit="1" d="M1382.973,819.28
	L1382.973,819.28"/>
<path id="rect3383" fill="#FFFFFF" stroke="#000000" stroke-width="2" stroke-miterlimit="1" d="M1163.903,614.237h1.103
	c0.8,0,1.448,0.646,1.448,1.447v1.104c0,0.8-0.648,1.449-1.448,1.449h-1.103c-0.801,0-1.449-0.649-1.449-1.449v-1.104
	C1162.453,614.885,1163.104,614.237,1163.903,614.237z"/>
<path id="rect3385" fill="#FFFFFF" stroke="#000000" stroke-width="2" stroke-miterlimit="1" d="M1168.854,589.604h1.102
	c0.802,0,1.45,0.648,1.45,1.449v1.103c0,0.801-0.648,1.448-1.45,1.448h-1.102c-0.801,0-1.448-0.647-1.448-1.448v-1.103
	C1167.404,590.252,1168.053,589.604,1168.854,589.604z"/>
<path id="rect3387" fill="#FFFFFF" stroke="#000000" stroke-width="2" stroke-miterlimit="1" d="M1179.459,549.89h1.102
	c0.802,0,1.45,0.648,1.45,1.449v1.103c0,0.801-0.648,1.448-1.45,1.448h-1.102c-0.801,0-1.448-0.647-1.448-1.448v-1.103
	C1178.011,550.538,1178.658,549.89,1179.459,549.89z"/>
<path id="rect3409" fill="#FFFFFF" stroke="#000000" stroke-width="2" stroke-miterlimit="1" d="M1180.363,427.018h1.103
	c0.802,0,1.449,0.648,1.449,1.449v1.104c0,0.8-0.647,1.447-1.449,1.447h-1.103c-0.801,0-1.448-0.647-1.448-1.447v-1.104
	C1178.913,427.666,1179.563,427.018,1180.363,427.018z"/>
<path id="rect3413" fill="#FFFFFF" stroke="#000000" stroke-width="2" stroke-miterlimit="1" d="M1192.448,360.749h1.103
	c0.801,0,1.449,0.649,1.449,1.45v1.101c0,0.801-0.648,1.449-1.449,1.449h-1.103c-0.802,0-1.448-0.648-1.448-1.449v-1.101
	C1191,361.399,1191.648,360.749,1192.448,360.749z"/>
<text transform="matrix(0.866 0.5 -0.5 0.866 1108.0205 589.0488)" font-family="'ArialMT'" font-size="12">Lortzingstr.</text>
<text transform="matrix(1 0 0 1 1114.4014 554.0107)" font-family="'ArialMT'" font-size="12">Nordplatz</text>
<text transform="matrix(1 0 0 1 1139.6865 258.7021)" font-family="'Arial-BoldMT'" font-size="16">Gohlis-</text>
<text transform="matrix(1 0 0 1 1139.6865 274.7021)" font-family="'Arial-BoldMT'" font-size="16">Nord</text>
<text transform="matrix(0.866 -0.5 0.5 0.866 1188.8428 441.0283)" font-family="'ArialMT'" font-size="12">S-Bf. Gohlis</text>
<text transform="matrix(0.866 -0.5 0.5 0.866 1201.5225 363.9785)" font-family="'ArialMT'" font-size="12">Gott-</text>
<text transform="matrix(0.866 -0.5 0.5 0.866 1207.5225 374.3711)" font-family="'ArialMT'" font-size="12">schallstr.</text>
<text transform="matrix(0.866 0.5 -0.5 0.866 1254.6729 770.9102)" font-family="'Arial-BoldMT'" font-size="16">Johannis-</text>
<text transform="matrix(0.866 0.5 -0.5 0.866 1246.6729 784.7666)" font-family="'Arial-BoldMT'" font-size="16">platz</text>
<text transform="matrix(0.9659 0.2588 -0.2588 0.9659 1140.5303 585.5137)" font-family="'ArialMT'" font-size="12">Zoo</text>
<g id="layer2" transform="translate(508.66943,360.60033)">
	<text transform="matrix(1 0 0 1 -210.2256 -269.4929)" font-family="'ArialMT'" font-size="40">Liniennetz der Straßenbahn Leipzig</text>
</g>
</svg>
